<svg xmlns="http://www.w3.org/2000/svg" viewBox="0 0 89.76 89.76">
  <g fill="#6a453b">
    <path d="M58.26 23.88H31.5a7.75 7.75 0 00-7.74 7.74v26.76a7.75 7.75 0 007.74 7.74h26.75A7.75 7.75 0 0066 58.38V31.62a7.75 7.75 0 00-7.74-7.74zM44.88 58.91c-7.67 0-13.9-6.24-13.9-13.91s6.23-13.9 13.9-13.9 13.9 6.23 13.9 13.9-6.23 13.9-13.9 13.9zm14.35-24.94a3.3 3.3 0 110-6.59 3.3 3.3 0 010 6.59z"/>
    <path d="M44.88 36.97a8.04 8.04 0 000 16.06 8.04 8.04 0 000-16.06z"/>
    <path d="M44.88 0a44.88 44.88 0 100 89.76 44.88 44.88 0 000-89.76zm27 58.38c0 7.5-6.11 13.62-13.62 13.62H31.5c-7.5 0-13.62-6.11-13.62-13.62V31.62C17.88 24.12 24 18 31.5 18h26.75c7.52 0 13.62 6.11 13.62 13.62v26.76z"/>
  </g>
</svg>