<svg xmlns="http://www.w3.org/2000/svg" viewBox="0 0 112.2 112.2">
  <circle cx="56.1" cy="56.1" r="56.1" fill="#007ab9"/>
  <path fill="#f1f2f2" d="M89.62 60.61v23.13H76.2V62.16c0-5.42-1.94-9.12-6.8-9.12-3.7 0-5.9 2.5-6.87 4.9a9.18 9.18 0 00-.45 3.27v22.53H48.7s.17-36.55 0-40.33h13.4v5.71l-.08.14h.09v-.14c1.78-2.74 4.95-6.66 12.08-6.66 8.82 0 15.44 5.77 15.44 18.15zM34.66 23.97c-4.6 0-7.6 3.01-7.6 6.97 0 3.87 2.92 6.97 7.42 6.97h.09c4.67 0 7.58-3.1 7.58-6.97-.09-3.96-2.9-6.97-7.5-6.97zm-6.8 59.77h13.41V43.4h-13.4v40.33z"/>
</svg>